  <svg
    xmlns="http://www.w3.org/2000/svg"
    viewBox="0 0 291.369 50.48"
    class="w-36 sm:w-48 md:w-64 lg:w-96 text-white"
    fill="#fff"
    >
    <title>StubSquad logo</title>
    <desc>
        A graphic of the StubSquad logo in stylized typography
    </desc>
    <path
        d="M353.816-1049.234v-7.319l-4.504-5.317H332.11l-4.503 5.317v12.698l4.503 5.317h12.636v12.698h-8.132v-7.256h-9.007v7.256l4.503 5.317h17.202l4.504-5.317v-12.698l-4.504-5.317h-12.698v-12.698h8.132v7.319zM356.005-1061.87v8.007l5.317-2.69h3.816v30.713l-2.69 5.317h14.45l-2.752-5.317v-30.713h3.878l5.254 2.69v-8.007zM401.731-1061.87l2.69 5.317v30.713h-8.132v-30.713l2.69-5.317h-14.45l2.69 5.317v30.713l4.566 5.317h17.14l4.504-5.317v-30.713l2.752-5.317zM446.269-1056.553l-4.504-5.317h-24.333l2.752 5.317v30.713l-2.752 5.317h24.333l4.504-5.317v-11.071l-3.628-4.254 3.628-4.253zm-17.077 30.713v-12.698h8.069v12.698zm0-18.015v-12.698h8.069v12.698zM489.68-1049.234v-7.319l-4.504-5.317h-17.202l-4.504 5.317v12.698l4.504 5.317h12.636v12.698h-8.132v-7.256h-9.008v7.256l4.504 5.317h17.202l4.504-5.317v-12.698l-4.504-5.317h-12.698v-12.698h8.132v7.319zM519.642-1025.84v-30.713l-4.503-5.317h-17.202l-4.504 5.317v30.713l4.504 5.317h6.693l4.253 9.133h9.008l-7.256-9.133h4.504zm-17.202 0v-30.713h8.195v30.713zM539.034-1061.87l2.69 5.317v30.713h-8.132v-30.713l2.69-5.317h-14.45l2.69 5.317v30.713l4.566 5.317h17.14l4.503-5.317v-30.713l2.752-5.317zM585.823-1025.84l-5.442-30.713 1.751-5.317H560.74l1.814 5.317-5.442 30.713-3.628 5.317h11.698l1.626-9.195h9.32l1.564 9.195h11.76zm-14.387-30.213 3.753 21.018h-7.444zM614.472-1061.87h-24.396l2.69 5.317v30.713l-2.69 5.317h24.396l4.504-5.317v-30.713zm-12.698 36.03v-30.713h8.194v30.713z"
        transform="translate(-327.607 1061.87)"
    />
</svg>

